<svg width="30" height="29" viewBox="0 0 30 29" fill="none" xmlns="http://www.w3.org/2000/svg">
<g clip-path="url(#clip0_204_3977)">
<path d="M14.4781 6.97708C13.1578 6.97708 11.9332 7.30715 10.8042 7.9673C9.67528 8.62744 8.77595 9.52199 8.10624 10.6509C7.43653 11.7799 7.10167 13.0093 7.10167 14.3391C7.10167 15.669 7.43174 16.8984 8.09189 18.0273C8.75203 19.1563 9.65136 20.0508 10.7899 20.711C11.9284 21.3711 13.1626 21.7012 14.4924 21.7012C15.8223 21.7012 17.0517 21.3711 18.1806 20.711C19.3096 20.0508 20.2041 19.1563 20.8642 18.0273C21.5244 16.8984 21.8545 15.669 21.8545 14.3391C21.8545 13.0093 21.5244 11.7799 20.8642 10.6509C20.2041 9.52199 19.3096 8.62744 18.1806 7.9673C17.0517 7.30715 15.8175 6.97708 14.4781 6.97708ZM14.4781 18.8884C13.6553 18.8884 12.8947 18.6827 12.1963 18.2713C11.4979 17.8599 10.9429 17.305 10.5316 16.6066C10.1202 15.9082 9.91446 15.1476 9.91446 14.3248C9.91446 13.502 10.1202 12.7462 10.5316 12.0573C10.9429 11.3685 11.4979 10.8184 12.1963 10.407C12.8947 9.99557 13.6553 9.78987 14.4781 9.78987C15.3009 9.78987 16.0615 9.99557 16.7599 10.407C17.4583 10.8184 18.0132 11.3685 18.4246 12.0573C18.836 12.7462 19.0417 13.502 19.0417 14.3248C19.0417 15.1476 18.836 15.9082 18.4246 16.6066C18.0132 17.305 17.4583 17.8599 16.7599 18.2713C16.0615 18.6827 15.3009 18.8884 14.4781 18.8884ZM20.5055 0.146025H8.45066C6.9773 0.146025 5.60917 0.51915 4.34629 1.2654C3.10254 1.99251 2.1171 2.98273 1.38999 4.23605C0.662874 5.48936 0.299316 6.85271 0.299316 8.32607V20.3522C0.299316 21.8255 0.662874 23.1889 1.38999 24.4422C2.1171 25.6955 3.10254 26.6857 4.34629 27.4129C5.60917 28.1591 6.9773 28.5322 8.45066 28.5322H20.5055C21.9788 28.5322 23.3565 28.1591 24.6385 27.4129C25.8632 26.6857 26.839 25.7099 27.5661 24.4853C28.3124 23.2032 28.6855 21.8255 28.6855 20.3522V8.32607C28.6855 6.85271 28.3124 5.47501 27.5661 4.193C26.839 2.96838 25.8632 1.99251 24.6385 1.2654C23.3565 0.51915 21.9788 0.146025 20.5055 0.146025ZM25.8727 20.3522C25.8727 21.328 25.6335 22.2274 25.1552 23.0502C24.6768 23.8729 24.0262 24.5235 23.2035 25.0019C22.3807 25.4803 21.4813 25.7194 20.5055 25.7194H8.45066C7.4748 25.7194 6.58025 25.4803 5.76703 25.0019C4.95381 24.5235 4.30802 23.8729 3.82965 23.0502C3.35129 22.2274 3.1121 21.328 3.1121 20.3522V8.32607C3.1121 7.35021 3.35129 6.45088 3.82965 5.62809C4.30802 4.8053 4.95381 4.15473 5.76703 3.67636C6.58025 3.19799 7.4748 2.95881 8.45066 2.95881H20.5055C21.4813 2.95881 22.3807 3.19799 23.2035 3.67636C24.0262 4.15473 24.6768 4.8053 25.1552 5.62809C25.6335 6.45088 25.8727 7.35021 25.8727 8.32607V20.3522ZM21.9693 4.82444C21.4335 4.82444 20.9743 5.01578 20.5916 5.39848C20.2089 5.78117 20.0175 6.2404 20.0175 6.77617C20.0175 7.31194 20.2089 7.76638 20.5916 8.13951C20.9743 8.51263 21.4335 8.6992 21.9693 8.6992C22.505 8.6992 22.9595 8.51263 23.3326 8.13951C23.7057 7.76638 23.8923 7.31194 23.8923 6.77617C23.8923 6.2404 23.7057 5.78117 23.3326 5.39848C22.9595 5.01578 22.505 4.82444 21.9693 4.82444Z" fill="white"/>
</g>
<defs>
<clipPath id="clip0_204_3977">
<rect width="28.7402" height="28.7019" fill="white" transform="matrix(1 0 0 -1 0.278809 28.7021)"/>
</clipPath>
</defs>
</svg>
