<svg width="44" height="44" viewBox="0 0 44 44" fill="none" xmlns="http://www.w3.org/2000/svg">
<path d="M12.6205 9.09623C12.62 10.0612 12.2362 10.9864 11.5535 11.6684C10.8709 12.3504 9.94524 12.7333 8.98029 12.7328C8.01534 12.7323 7.0901 12.3485 6.40811 11.6658C5.72613 10.9832 5.34327 10.0575 5.34375 9.09259C5.34423 8.12764 5.72802 7.2024 6.41069 6.52042C7.09335 5.83844 8.01898 5.45557 8.98393 5.45606C9.94888 5.45654 10.8741 5.84033 11.5561 6.52299C12.2381 7.20566 12.621 8.13128 12.6205 9.09623ZM12.7296 15.427H5.4529V38.2031H12.7296V15.427ZM24.2268 15.427H16.9865V38.2031H24.1541V26.2511C24.1541 19.5929 32.8315 18.9744 32.8315 26.2511V38.2031H40.0173V23.777C40.0173 12.5527 27.1739 12.9711 24.1541 18.4832L24.2268 15.427Z" fill="white"/>
</svg>
