<svg width="27" height="28" viewBox="0 0 27 28" fill="none" xmlns="http://www.w3.org/2000/svg">
<mask id="path-1-inside-1_204_3976" fill="white">
<path d="M15.4812 12.2571L25.1691 0.914062H22.8729L14.4632 10.7626L7.74317 0.914062H-0.00634766L10.1541 15.8084L-0.00634766 27.7025H2.28981L11.1721 17.3009L18.2691 27.7025H26.0186L15.4812 12.2571ZM12.3374 15.9386L11.308 14.4556L3.11642 2.65531H6.64293L13.252 12.1786L14.2815 13.6615L22.8748 26.0416H19.3483L12.3374 15.9386Z"/>
</mask>
<path d="M15.4812 12.2571L25.1691 0.914062H22.8729L14.4632 10.7626L7.74317 0.914062H-0.00634766L10.1541 15.8084L-0.00634766 27.7025H2.28981L11.1721 17.3009L18.2691 27.7025H26.0186L15.4812 12.2571ZM12.3374 15.9386L11.308 14.4556L3.11642 2.65531H6.64293L13.252 12.1786L14.2815 13.6615L22.8748 26.0416H19.3483L12.3374 15.9386Z" fill="white"/>
<path d="M15.4812 12.2571L13.5412 10.6001L12.2743 12.0835L13.3737 13.6949L15.4812 12.2571ZM25.1691 0.914062L27.1091 2.57099L30.7032 -1.63722H25.1691V0.914062ZM22.8729 0.914062V-1.63722H21.6966L20.9327 -0.742655L22.8729 0.914062ZM14.4632 10.7626L12.3558 12.2006L14.2366 14.957L16.4034 12.4194L14.4632 10.7626ZM7.74317 0.914062L9.8506 -0.523918L9.09095 -1.63722H7.74317V0.914062ZM-0.00634766 0.914062V-1.63722H-4.83512L-2.11394 2.3518L-0.00634766 0.914062ZM10.1541 15.8084L12.094 17.4656L13.3611 15.9823L12.2617 14.3707L10.1541 15.8084ZM-0.00634766 27.7025L-1.9462 26.0454L-5.54121 30.2538H-0.00634766V27.7025ZM2.28981 27.7025V30.2538H3.46609L4.22995 29.3593L2.28981 27.7025ZM11.1721 17.3009L13.2796 15.863L11.3989 13.1066L9.23195 15.6442L11.1721 17.3009ZM18.2691 27.7025L16.1617 29.1405L16.9213 30.2538H18.2691V27.7025ZM26.0186 27.7025V30.2538H30.8477L28.1262 26.2647L26.0186 27.7025ZM12.3374 15.9386L14.4334 14.484L14.4332 14.4837L12.3374 15.9386ZM11.308 14.4556L9.21214 15.9105L9.21216 15.9105L11.308 14.4556ZM3.11642 2.65531V0.104031H-1.76037L1.02061 4.11018L3.11642 2.65531ZM6.64293 2.65531L8.73892 1.20071L7.97783 0.104031H6.64293V2.65531ZM13.252 12.1786L11.156 13.6332L11.1562 13.6335L13.252 12.1786ZM14.2815 13.6615L16.3773 12.2068L16.3773 12.2067L14.2815 13.6615ZM22.8748 26.0416V28.5929H27.7514L24.9707 24.5868L22.8748 26.0416ZM19.3483 26.0416L17.2523 27.4962L18.0134 28.5929H19.3483V26.0416ZM17.4212 13.914L27.1091 2.57099L23.2291 -0.742864L13.5412 10.6001L17.4212 13.914ZM25.1691 -1.63722H22.8729V3.46534H25.1691V-1.63722ZM20.9327 -0.742655L12.5231 9.10593L16.4034 12.4194L24.8131 2.57078L20.9327 -0.742655ZM16.5707 9.32467L9.8506 -0.523918L5.63574 2.35204L12.3558 12.2006L16.5707 9.32467ZM7.74317 -1.63722H-0.00634766V3.46534H7.74317V-1.63722ZM-2.11394 2.3518L8.04654 17.2462L12.2617 14.3707L2.10125 -0.523673L-2.11394 2.3518ZM8.21428 14.1513L-1.9462 26.0454L1.9335 29.3596L12.094 17.4656L8.21428 14.1513ZM-0.00634766 30.2538H2.28981V25.1512H-0.00634766V30.2538ZM4.22995 29.3593L13.1122 18.9577L9.23195 15.6442L0.349658 26.0458L4.22995 29.3593ZM9.06463 18.7389L16.1617 29.1405L20.3766 26.2646L13.2796 15.863L9.06463 18.7389ZM18.2691 30.2538H26.0186V25.1512H18.2691V30.2538ZM28.1262 26.2647L17.5887 10.8192L13.3737 13.6949L23.9111 29.1404L28.1262 26.2647ZM14.4332 14.4837L13.4037 13.0007L9.21216 15.9105L10.2416 17.3934L14.4332 14.4837ZM13.4038 13.0008L5.21223 1.20045L1.02061 4.11018L9.21214 15.9105L13.4038 13.0008ZM3.11642 5.20659H6.64293V0.104031H3.11642V5.20659ZM4.54694 4.10991L11.156 13.6332L15.348 10.724L8.73892 1.20071L4.54694 4.10991ZM11.1562 13.6335L12.1857 15.1164L16.3773 12.2067L15.3478 10.7237L11.1562 13.6335ZM12.1856 15.1163L20.779 27.4964L24.9707 24.5868L16.3773 12.2068L12.1856 15.1163ZM22.8748 23.4904H19.3483V28.5929H22.8748V23.4904ZM21.4444 24.5871L14.4334 14.484L10.2414 17.3931L17.2523 27.4962L21.4444 24.5871Z" fill="white" mask="url(#path-1-inside-1_204_3976)"/>
</svg>
