<svg width="13" height="13" viewBox="0 0 15 15" fill="none" xmlns="http://www.w3.org/2000/svg">
<g clip-path="url(#clip0_204_3596)">
<path d="M7.2346 0.285034C3.24536 0.285034 0 3.53057 0 7.5198C0 11.5092 3.24536 14.7547 7.2346 14.7547C11.2238 14.7547 14.4694 11.5092 14.4694 7.5198C14.4694 3.53057 11.2237 0.285034 7.2346 0.285034ZM7.2346 13.7088C3.82223 13.7088 1.04582 10.9323 1.04582 7.5198C1.04582 4.10726 3.82205 1.33102 7.2346 1.33102C10.6471 1.33102 13.4234 4.10726 13.4234 7.5198C13.4234 10.9323 10.6471 13.7088 7.2346 13.7088Z" fill="black"/>
<path d="M9.32731 8.18595C9.32452 8.18595 9.32208 8.18595 9.31929 8.18595L7.75693 8.20931V4.12053C7.75693 3.83166 7.5228 3.59753 7.23393 3.59753C6.94507 3.59753 6.71094 3.83166 6.71094 4.12053V8.74032C6.71094 8.74137 6.71129 8.74241 6.71129 8.74346C6.71129 8.7452 6.71094 8.74677 6.71094 8.74817C6.71129 8.76943 6.7153 8.78948 6.71809 8.80988C6.71983 8.82261 6.72 8.83568 6.72244 8.84823C6.72715 8.87072 6.735 8.89164 6.74249 8.91273C6.74633 8.92372 6.74877 8.93522 6.7533 8.94568C6.76237 8.96713 6.77457 8.98665 6.78625 9.0067C6.79165 9.01559 6.79566 9.02535 6.80142 9.03407C6.81467 9.05342 6.83053 9.07068 6.84622 9.08829C6.85284 9.09561 6.85825 9.10398 6.86522 9.11112C6.88213 9.12786 6.90113 9.14198 6.92014 9.15645C6.92781 9.1622 6.93461 9.16918 6.94245 9.17458C6.96302 9.18853 6.98551 9.19951 7.008 9.21032C7.01584 9.21398 7.02282 9.21921 7.03084 9.22252C7.05699 9.23351 7.08488 9.24118 7.11312 9.24798C7.11835 9.2492 7.12323 9.25164 7.12864 9.25268C7.16246 9.25948 7.1975 9.26332 7.23341 9.26332C7.23603 9.26332 7.23881 9.26332 7.24143 9.26332L9.33481 9.23194C9.6235 9.22758 9.85414 8.98979 9.84996 8.7011C9.84595 8.41502 9.61252 8.18595 9.32731 8.18595Z" fill="black"/>
</g>
<defs>
<clipPath id="clip0_204_3596">
<rect width="14.4697" height="14.4697" fill="white" transform="translate(0 0.285156)"/>
</clipPath>
</defs>
</svg>
