<svg width="38" height="37" viewBox="0 0 38 37" fill="none" xmlns="http://www.w3.org/2000/svg">
<g clip-path="url(#clip0_204_3981)">
<path d="M18.9968 6.16016C20.3149 6.16016 21.6669 6.19407 22.9773 6.24957L24.5252 6.32357L26.0067 6.41145L27.3942 6.50549L28.6615 6.60416C30.0367 6.70942 31.3308 7.29628 32.316 8.26151C33.3013 9.22673 33.9146 10.5085 34.0481 11.8813L34.1097 12.5365L34.2253 13.9394C34.3333 15.3932 34.4134 16.978 34.4134 18.4935C34.4134 20.0089 34.3333 21.5938 34.2253 23.0476L34.1097 24.4505C34.0897 24.6756 34.0696 24.8929 34.0481 25.1057C33.9145 26.4787 33.301 27.7607 32.3154 28.7259C31.3299 29.6912 30.0354 30.2779 28.6599 30.3828L27.3958 30.4799L26.0083 30.5755L24.5252 30.6634L22.9773 30.7374C21.6512 30.795 20.3241 30.8248 18.9968 30.8268C17.6694 30.8248 16.3423 30.795 15.0162 30.7374L13.4683 30.6634L11.9868 30.5755L10.5993 30.4799L9.33204 30.3828C7.9568 30.2775 6.66272 29.6907 5.67747 28.7255C4.69223 27.7602 4.07892 26.4785 3.94545 25.1057L3.88379 24.4505L3.76816 23.0476C3.65028 21.5323 3.58755 20.0133 3.58008 18.4935C3.58008 16.978 3.66024 15.3932 3.76816 13.9394L3.88379 12.5365C3.90383 12.3114 3.92387 12.094 3.94545 11.8813C4.07887 10.5087 4.69195 9.22717 5.67689 8.26198C6.66182 7.29678 7.95553 6.70976 9.3305 6.60416L10.5962 6.50549L11.9837 6.41145L13.4668 6.32357L15.0146 6.24957C16.3412 6.19197 17.6689 6.16215 18.9968 6.16016ZM18.9968 9.24349C17.7249 9.24349 16.416 9.2774 15.1426 9.32982L13.6348 9.40228L12.1872 9.48707L10.8275 9.57957L9.58179 9.6767C8.92709 9.72315 8.30998 9.9999 7.83985 10.4579C7.36972 10.9159 7.07692 11.5256 7.01337 12.1788C6.833 14.0427 6.66341 16.3629 6.66341 18.4935C6.66341 20.6241 6.833 22.9443 7.01337 24.8081C7.14441 26.1525 8.21125 27.1977 9.58179 27.3103L10.8275 27.4059L12.1872 27.4984L13.6348 27.5847L15.1426 27.6571C16.416 27.7096 17.7249 27.7435 18.9968 27.7435C20.2686 27.7435 21.5775 27.7096 22.8509 27.6571L24.3587 27.5847L25.8063 27.4999L27.166 27.4074L28.4117 27.3103C29.0664 27.2638 29.6835 26.9871 30.1537 26.5291C30.6238 26.0711 30.9166 25.4614 30.9801 24.8081C31.1605 22.9443 31.3301 20.6241 31.3301 18.4935C31.3301 16.3629 31.1605 14.0427 30.9801 12.1788C30.9166 11.5256 30.6238 10.9159 30.1537 10.4579C29.6835 9.9999 29.0664 9.72315 28.4117 9.6767L27.166 9.58111L25.8063 9.48861L24.3587 9.40228L22.8509 9.32982C21.5669 9.27458 20.2819 9.24579 18.9968 9.24349ZM15.9134 14.7549C15.9133 14.6043 15.95 14.4558 16.0204 14.3226C16.0907 14.1893 16.1925 14.0753 16.317 13.9903C16.4414 13.9054 16.5847 13.8521 16.7344 13.8352C16.8842 13.8183 17.0358 13.8382 17.176 13.8932L17.3009 13.9548L23.7759 17.6918C23.9049 17.7662 24.0139 17.8706 24.0939 17.9962C24.1738 18.1218 24.2223 18.2648 24.2352 18.4131C24.248 18.5614 24.2249 18.7106 24.1678 18.8481C24.1106 18.9855 24.0212 19.1072 23.907 19.2026L23.7759 19.2951L17.3009 23.0337C17.1704 23.1092 17.0235 23.1518 16.8728 23.1575C16.7221 23.1633 16.5723 23.1322 16.4364 23.0668C16.3006 23.0014 16.1827 22.9039 16.0932 22.7826C16.0036 22.6612 15.9451 22.5199 15.9227 22.3708L15.9134 22.232V14.7549Z" fill="white"/>
</g>
<defs>
<clipPath id="clip0_204_3981">
<rect width="37" height="37" fill="white" transform="translate(0.5)"/>
</clipPath>
</defs>
</svg>
